<svg width="297" height="101" viewBox="0 0 297 101" fill="none" xmlns="http://www.w3.org/2000/svg">
<path d="M133.55 83.84H112.25C107.63 83.84 103.99 82.66 101.35 80.31C98.6999 77.96 97.3799 74.67 97.3799 70.45V51.1C97.3799 46.88 98.6999 43.59 101.35 41.24C104 38.89 107.63 37.71 112.25 37.71H120.69C125.31 37.71 128.93 38.89 131.54 41.24C134.15 43.59 135.46 46.88 135.46 51.1V62.58C135.46 63.48 134.99 63.94 134.05 63.94H105.62C104.95 63.94 104.62 64.21 104.62 64.75V70.27C104.62 75.51 107.43 78.14 113.06 78.14H133.56C134.5 78.14 134.97 78.56 134.97 79.41V82.67C134.97 83.45 134.5 83.85 133.56 83.85L133.55 83.84ZM105.62 59.15H127.32C127.99 59.15 128.32 58.85 128.32 58.25V51.29C128.32 46.11 125.51 43.51 119.88 43.51H113.05C107.42 43.51 104.61 46.1 104.61 51.29V58.25C104.61 58.85 104.94 59.15 105.61 59.15H105.62Z" fill="#3636D6"/>
<path d="M153.74 83.84H149.22C148.28 83.84 147.81 83.42 147.81 82.57V38.99C147.81 38.15 148.28 37.72 149.22 37.72H153.74C154.68 37.72 155.15 38.14 155.15 38.99V42.52H155.55C157.22 39.33 160.64 37.73 165.8 37.73H171.43C175.98 37.73 179.53 38.91 182.08 41.26C184.62 43.61 185.9 46.9 185.9 51.12V82.59C185.9 83.43 185.43 83.86 184.49 83.86H179.97C179.03 83.86 178.56 83.44 178.56 82.59V51.39C178.56 46.15 175.75 43.52 170.12 43.52H164.49C161.48 43.52 159.17 44.24 157.56 45.69C155.95 47.14 155.15 49.19 155.15 51.84V82.58C155.15 83.42 154.68 83.85 153.74 83.85V83.84Z" fill="#3636D6"/>
<path d="M195.33 37.73H200.05C200.92 37.73 201.46 38.15 201.66 39L213.72 77.25H214.22L226.18 39C226.45 38.16 227.02 37.73 227.89 37.73H232.61C233.55 37.73 233.88 38.15 233.61 39L219.14 82.49C218.94 83.39 218.34 83.85 217.33 83.85H210.5C209.56 83.85 208.96 83.4 208.69 82.49L194.32 39C194.05 38.16 194.39 37.73 195.32 37.73H195.33Z" fill="#3636D6"/>
<path d="M73.6898 19.05C77.6198 19.05 80.7998 22.23 80.7998 26.16C80.7998 30.09 77.6198 33.27 73.6898 33.27C69.7598 33.27 66.5798 30.09 66.5798 26.16C66.5798 22.23 69.7598 19.05 73.6898 19.05ZM19.2698 33.26H55.0098C55.7998 33.26 56.4298 32.62 56.4298 31.84V20.47C56.4298 19.68 55.7898 19.05 55.0098 19.05H19.2798C18.4898 19.05 17.8598 19.69 17.8598 20.47V31.84C17.8598 32.63 18.4998 33.26 19.2798 33.26H19.2698ZM32.0598 82.84V45.62C32.0598 44.96 31.5298 44.43 30.8698 44.43H19.0298C18.3698 44.43 17.8398 44.96 17.8398 45.62V82.84C17.8398 83.5 18.3698 84.03 19.0298 84.03H30.8698C31.5298 84.03 32.0598 83.5 32.0598 82.84ZM43.4698 84.03H79.5398C80.2298 84.03 80.7998 83.47 80.7998 82.77V71.07C80.7998 70.38 80.2398 69.81 79.5398 69.81H43.4698C42.7798 69.81 42.2098 70.37 42.2098 71.07V82.77C42.2098 83.46 42.7698 84.03 43.4698 84.03ZM66.5798 51.54C66.5798 55.47 69.7598 58.65 73.6898 58.65C77.6198 58.65 80.7998 55.47 80.7998 51.54C80.7998 47.61 77.6198 44.43 73.6898 44.43C69.7598 44.43 66.5798 47.61 66.5798 51.54ZM42.2098 51.54C42.2098 55.47 45.3898 58.65 49.3198 58.65C53.2498 58.65 56.4298 55.47 56.4298 51.54C56.4298 47.61 53.2498 44.43 49.3198 44.43C45.3898 44.43 42.2098 47.61 42.2098 51.54Z" fill="#00EDB9"/>
<path d="M275.23 24.72C271.72 21.59 266.98 19.98 261.2 19.98C254.76 19.98 249.54 22.06 246.41 25.86C243.57 29.27 242.62 33.16 242.62 41.4V62.25C242.62 71.82 243.47 75.42 246.79 78.93C250.11 82.53 255.23 84.43 261.39 84.43C267.55 84.43 272.39 82.63 275.7 79.12C278.83 75.8 280.15 71.44 280.15 64.34V39.22C280.15 31.83 278.82 28.04 275.22 24.72H275.23ZM249.69 41.2C249.69 35.5 250.08 33.24 251.75 30.88C253.62 27.83 257.25 26.16 261.48 26.16C264.72 26.16 267.67 27.24 269.83 29.21C270.55 29.9 271.13 30.61 271.59 31.39L249.75 67.66C249.69 66.44 249.67 64.96 249.67 63.11V41.19L249.69 41.2ZM273.18 64.29C273.18 69.11 272.59 71.86 271.12 74.02C269.25 76.67 265.52 78.34 261.49 78.34C257.76 78.34 254.22 76.87 252.15 74.51C251.94 74.27 251.76 74.05 251.58 73.83L273.16 37.98C273.17 38.38 273.18 38.79 273.18 39.23V64.29Z" fill="#3636D6"/>
</svg>
